<?xml version="1.0" encoding="iso-8859-1"?>
<!-- Uploaded to: SVG Repo, www.svgrepo.com, Generator: SVG Repo Mixer Tools -->
<svg fill="#000000" height="800px" width="800px" version="1.1" id="Layer_1" xmlns="http://www.w3.org/2000/svg" xmlns:xlink="http://www.w3.org/1999/xlink" 
	 viewBox="0 0 512 512" xml:space="preserve">
<g>
	<g>
		<path d="M494.73,41.72l-3.986-32.469c-0.672-5.47-5.466-9.477-10.953-9.241l-70.89,3.323c-6.775,0.318-13.068,3.357-17.27,8.335
			c-3.798,4.501-5.508,10.088-4.815,15.731l0.371,3.022l-46.972,12.586c-21.431,5.742-39.342,19.486-50.398,38.637L187.195,256.62
			L175.728,250c-2.42-1.398-5.299-1.777-7.995-1.053c-2.701,0.724-5.001,2.489-6.398,4.909l-15.977,27.675
			c-4.52-1.257-9.486,0.624-11.939,4.874l-18.351,31.784l-46.802-27.021c-5.351-3.091-11.587-3.913-17.557-2.313
			s-10.959,5.428-14.048,10.78l-16.376,28.363c0,0,0,0,0,0.001c-6.378,11.046-2.578,25.224,8.468,31.604l46.802,27.022l-45.01,77.96
			c-1.397,2.42-1.776,5.296-1.053,7.995c0.724,2.7,2.489,5.001,4.909,6.398l54.749,31.609c1.659,0.958,3.471,1.414,5.258,1.414
			c3.641,0,7.184-1.89,9.135-5.27l102.873-178.179c1.397-2.42,1.776-5.296,1.053-7.995c-0.491-1.833-1.471-3.473-2.802-4.78
			l15.978-27.676c2.91-5.04,1.183-11.483-3.856-14.393l-11.344-6.55L308.031,92.242c8.277-14.338,21.645-24.595,37.638-28.88
			l44.247-11.856c1.133,4.715,3.934,8.863,8.061,11.845c3.985,2.879,8.858,4.397,13.869,4.397c1.629,0,3.273-0.16,4.905-0.487
			l69.587-13.925C491.744,52.255,495.401,47.192,494.73,41.72z M84.213,345.998c5.084-8.804,16.384-11.832,25.187-6.749
			c4.266,2.462,7.316,6.439,8.591,11.196c1.274,4.758,0.621,9.726-1.843,13.991c-2.462,4.266-6.439,7.316-11.196,8.591
			c-4.757,1.275-9.726,0.622-13.991-1.842C82.157,366.102,79.13,354.802,84.213,345.998z M65.962,335.46
			c-3.328,5.765-5.027,12.029-5.252,18.261l-21.418-12.365c-0.984-0.57-1.323-1.835-0.754-2.822l16.376-28.363
			c0.353-0.611,0.877-0.86,1.253-0.961c0.376-0.1,0.953-0.146,1.565,0.206l21.419,12.367
			C73.866,325.094,69.29,329.696,65.962,335.46z M90.565,487.069l-36.5-21.073l41.31-71.55c1.571,0.192,3.152,0.299,4.74,0.299
			c3.433,0,6.888-0.452,10.292-1.363c10.194-2.732,18.715-9.27,23.991-18.409c5.278-9.14,6.68-19.787,3.948-29.982
			c-1.334-4.979-3.582-9.555-6.593-13.554l14.649-25.372l36.5,21.073L90.565,487.069z M186.594,304.938l-22.812-13.17l10.536-18.25
			l22.812,13.17L186.594,304.938z M412.618,46.598c-1.1,0.222-1.91-0.072-2.247-0.289l-2.591-21.1
			c0.274-0.292,0.988-0.771,2.11-0.824l61.129-2.867l1.605,13.072L412.618,46.598z"/>
	</g>
</g>
</svg>